<svg width="100%" height="100%" viewBox="0 0 469 166" version="1.1" xmlns="http://www.w3.org/2000/svg" xmlns:xlink="http://www.w3.org/1999/xlink" xml:space="preserve" xmlns:serif="http://www.serif.com/" style="fill-rule:evenodd;clip-rule:evenodd;stroke-linejoin:round;stroke-miterlimit:2;">
    <g transform="matrix(1,0,0,1,-15.95,-42)">
        <path d="M469.36,94.32C468.92,94.32 468.56,94.41 468.27,94.59C467.99,94.77 467.85,95.04 467.85,95.41C467.85,95.77 467.99,96.05 468.27,96.25C468.55,96.44 469.15,96.65 470.08,96.87C471,97.09 471.7,97.41 472.16,97.81C472.63,98.21 472.86,98.81 472.86,99.59C472.86,100.37 472.56,101.01 471.97,101.5C471.38,101.99 470.6,102.23 469.64,102.23C468.23,102.23 466.99,101.75 465.9,100.78L466.85,99.64C467.76,100.43 468.7,100.82 469.68,100.82C470.17,100.82 470.56,100.72 470.84,100.51C471.13,100.3 471.27,100.02 471.27,99.67C471.27,99.32 471.13,99.05 470.87,98.86C470.6,98.67 470.14,98.49 469.48,98.33C468.82,98.17 468.32,98.03 467.98,97.89C467.64,97.76 467.33,97.58 467.07,97.37C466.54,96.97 466.27,96.35 466.27,95.52C466.27,94.69 466.57,94.05 467.18,93.6C467.78,93.15 468.53,92.93 469.42,92.93C469.99,92.93 470.56,93.02 471.13,93.21C471.7,93.4 472.18,93.66 472.6,94.01L471.79,95.15C471.52,94.91 471.16,94.71 470.71,94.56C470.24,94.39 469.8,94.32 469.36,94.32Z" style="fill:rgb(0,66,85);fill-rule:nonzero;"/>
        <path d="M476.25,102.12L474.73,102.12L474.73,93.14L477.09,93.14L479.8,98.78L482.51,93.14L484.86,93.14L484.86,102.12L483.34,102.12L483.34,95.1L480.2,101.33L479.35,101.33L476.23,95.1L476.23,102.12L476.25,102.12Z" style="fill:rgb(0,66,85);fill-rule:nonzero;"/>
        <path d="M53.27,148.05L34.93,166.39C32.07,169.25 31.83,173.81 34.37,176.96C38.05,181.51 42.2,185.66 46.75,189.34C49.9,191.88 54.46,191.64 57.32,188.78L75.38,170.72C65.83,165.69 58.07,157.73 53.27,148.05Z" style="fill:rgb(245,168,0);fill-rule:nonzero;"/>
        <path d="M98.83,42C72.8,42 49.58,54 34.39,72.77C31.84,75.92 32.06,80.49 34.93,83.36L53.56,101.99C62.05,85.38 79.33,74 99.27,74C127.6,74 150.57,96.97 150.57,125.3C150.57,145.23 139.2,162.51 122.59,171.01L140.35,188.77C143.22,191.64 147.79,191.86 150.94,189.31C169.71,174.12 181.71,150.89 181.71,124.87C181.71,79.1 144.61,42 98.83,42Z" style="fill:rgb(245,168,0);fill-rule:nonzero;"/>
        <path d="M24.28,109.05C20.24,109.05 16.84,112.1 16.41,116.12C16.11,119 15.95,121.92 15.95,124.87C15.95,127.83 16.1,130.75 16.41,133.63C16.83,137.65 20.23,140.7 24.28,140.7L50.31,140.7C48.78,135.84 47.96,130.67 47.96,125.3C47.96,119.61 48.88,114.15 50.59,109.04L24.28,109.04L24.28,109.05Z" style="fill:rgb(245,168,0);fill-rule:nonzero;"/>
        <path d="M99.27,176.61C93.58,176.61 88.12,175.69 83.01,173.98L83.01,199.43C83.01,203.47 86.06,206.87 90.08,207.3C92.96,207.6 95.88,207.76 98.83,207.76C101.79,207.76 104.71,207.61 107.59,207.3C111.61,206.88 114.66,203.48 114.66,199.43L114.66,174.26C109.81,175.79 104.64,176.61 99.27,176.61Z" style="fill:rgb(245,168,0);fill-rule:nonzero;"/>
        <path d="M250.58,179.95C250.58,180.51 250.15,180.98 249.57,180.98C249.01,180.98 248.56,180.51 248.56,179.95L248.56,179.56C248.56,179 249.01,178.55 249.57,178.55C250.15,178.55 250.58,179 250.58,179.56L250.58,179.95ZM250.58,183.35L250.58,190.66C250.58,191.22 250.15,191.67 249.57,191.67C249.01,191.67 248.56,191.22 248.56,190.66L248.56,183.35C248.56,182.75 249.01,182.32 249.57,182.32C250.15,182.32 250.58,182.75 250.58,183.35Z" style="fill:rgb(0,66,85);fill-rule:nonzero;"/>
        <path d="M257.35,180.14C257.35,180.01 257.42,179.84 257.5,179.73L258.57,178.08C258.78,177.74 259.08,177.54 259.47,177.54C260.07,177.54 260.82,177.92 260.82,178.27C260.82,178.48 260.69,178.66 260.5,178.83L259.24,180.03C258.79,180.44 258.43,180.54 257.91,180.54C257.59,180.54 257.35,180.39 257.35,180.14Z" style="fill:rgb(0,66,85);fill-rule:nonzero;"/>
        <path d="M261.67,188.99C262.01,188.54 262.66,188.48 263.08,188.84C263.57,189.25 264.41,189.68 265.14,189.66C265.65,189.66 266.12,189.49 266.42,189.3C266.68,189.08 266.76,188.89 266.76,188.74C266.76,188.65 266.74,188.61 266.7,188.55C266.68,188.49 266.61,188.42 266.46,188.33C266.2,188.14 265.64,187.94 264.96,187.8L264.94,187.8C264.36,187.69 263.8,187.54 263.31,187.31C262.8,187.07 262.35,186.73 262.02,186.22C261.81,185.88 261.7,185.47 261.7,185.04C261.7,184.18 262.19,183.45 262.81,182.98C263.47,182.53 264.25,182.29 265.12,182.29C266.41,182.29 267.33,182.91 267.93,183.32C268.38,183.62 268.51,184.24 268.23,184.71C267.93,185.16 267.31,185.29 266.84,184.97C266.24,184.58 265.72,184.28 265.12,184.28C264.65,184.28 264.24,184.43 263.99,184.62C263.75,184.79 263.69,184.96 263.69,185.05C263.69,185.12 263.69,185.14 263.73,185.2C263.75,185.24 263.81,185.31 263.94,185.39C264.18,185.56 264.67,185.73 265.31,185.84L265.33,185.86L265.35,185.86C265.97,185.97 266.55,186.14 267.09,186.4C267.6,186.63 268.1,186.98 268.42,187.51C268.64,187.89 268.78,188.32 268.78,188.75C268.78,189.67 268.27,190.44 267.6,190.93C266.93,191.4 266.08,191.68 265.16,191.68C263.7,191.66 262.57,190.99 261.82,190.39C261.39,190.04 261.33,189.4 261.67,188.99Z" style="fill:rgb(0,66,85);fill-rule:nonzero;"/>
        <path d="M280.47,183.1C280.47,183.11 280.46,183.12 280.46,183.12C280.02,182.8 279.52,182.56 278.98,182.42C278.89,182.4 278.81,182.38 278.72,182.37C278.67,182.35 278.62,182.35 278.56,182.35C278.48,182.33 278.4,182.33 278.33,182.32C278.21,182.31 278.09,182.3 277.97,182.3C277.51,182.3 277.07,182.37 276.65,182.51C275.93,182.74 275.29,183.15 274.77,183.7C273.97,184.55 273.49,185.71 273.49,187C273.49,188.28 273.96,189.44 274.77,190.3C275.48,191.04 276.41,191.54 277.49,191.65C277.65,191.67 277.81,191.67 277.96,191.67C278.08,191.67 278.2,191.66 278.32,191.65C278.4,191.64 278.48,191.63 278.55,191.62C278.67,191.61 278.78,191.59 278.88,191.57C279.02,191.54 279.15,191.5 279.28,191.46C279.38,191.43 279.48,191.39 279.58,191.34C279.68,191.3 279.78,191.25 279.88,191.21C279.98,191.16 280.07,191.1 280.17,191.05C280.26,191 280.36,190.93 280.44,190.87L280.44,190.88C280.56,191.32 280.93,191.67 281.41,191.67C281.95,191.67 282.41,191.22 282.41,190.68L282.41,186.98C282.43,185.37 281.65,183.94 280.47,183.1ZM279.71,188.93C279.26,189.4 278.62,189.66 277.97,189.66C277.29,189.66 276.65,189.4 276.23,188.93C275.78,188.45 275.51,187.77 275.51,187C275.51,186.21 275.77,185.54 276.23,185.07C276.66,184.56 277.3,184.3 277.97,184.3C278.62,184.3 279.26,184.56 279.71,185.07C280.16,185.54 280.44,186.21 280.44,187C280.44,187.77 280.16,188.45 279.71,188.93Z" style="fill:rgb(0,66,85);fill-rule:nonzero;"/>
        <path d="M303.01,183.1C303.01,183.11 303,183.12 303,183.12C302.56,182.8 302.06,182.56 301.52,182.42C301.43,182.4 301.35,182.38 301.26,182.37C301.21,182.35 301.16,182.35 301.1,182.35C301.02,182.33 300.94,182.33 300.87,182.32C300.75,182.31 300.63,182.3 300.51,182.3C300.05,182.3 299.61,182.37 299.19,182.51C298.47,182.74 297.83,183.15 297.31,183.7C296.51,184.55 296.03,185.71 296.03,187C296.03,188.28 296.5,189.44 297.31,190.3C298.02,191.04 298.95,191.54 300.03,191.65C300.19,191.67 300.35,191.67 300.5,191.67C300.62,191.67 300.74,191.66 300.86,191.65C300.94,191.64 301.02,191.63 301.09,191.62C301.21,191.61 301.32,191.59 301.42,191.57C301.56,191.54 301.69,191.5 301.82,191.46C301.92,191.43 302.02,191.39 302.12,191.34C302.22,191.3 302.32,191.25 302.42,191.21C302.52,191.16 302.61,191.1 302.71,191.05C302.8,191 302.9,190.93 302.98,190.87L302.98,190.88C303.1,191.32 303.47,191.67 303.95,191.67C304.49,191.67 304.95,191.22 304.95,190.68L304.95,186.98C304.98,185.37 304.2,183.94 303.01,183.1ZM302.26,188.93C301.81,189.4 301.17,189.66 300.52,189.66C299.84,189.66 299.2,189.4 298.78,188.93C298.33,188.45 298.06,187.77 298.06,187C298.06,186.21 298.32,185.54 298.78,185.07C299.21,184.56 299.85,184.3 300.52,184.3C301.17,184.3 301.81,184.56 302.26,185.07C302.71,185.54 302.99,186.21 302.99,187C302.99,187.77 302.71,188.45 302.26,188.93Z" style="fill:rgb(0,66,85);fill-rule:nonzero;"/>
        <path d="M285.48,178.55C286.06,178.55 286.53,179.02 286.53,179.58L286.53,190.64C286.53,191.2 286.06,191.67 285.48,191.67C284.92,191.67 284.45,191.2 284.45,190.64L284.45,179.58C284.45,179.02 284.92,178.55 285.48,178.55Z" style="fill:rgb(0,66,85);fill-rule:nonzero;"/>
        <path d="M289.24,178.55C289.82,178.55 290.29,179.02 290.29,179.58L290.29,190.64C290.29,191.2 289.82,191.67 289.24,191.67C288.68,191.67 288.21,191.2 288.21,190.64L288.21,179.58C288.21,179.02 288.68,178.55 289.24,178.55Z" style="fill:rgb(0,66,85);fill-rule:nonzero;"/>
        <path d="M306.81,190.67L306.81,179.56C306.81,179.02 307.26,178.55 307.82,178.55C308.4,178.55 308.85,179.02 308.85,179.56L308.85,183.09C309.54,182.6 310.44,182.3 311.36,182.3C313.89,182.3 315.92,184.44 315.92,187.01C315.92,189.54 313.9,191.68 311.36,191.68C310.42,191.68 309.52,191.36 308.81,190.87C308.72,191.32 308.32,191.68 307.82,191.68C307.26,191.68 306.81,191.21 306.81,190.67ZM308.85,187C308.85,187.71 309.13,188.39 309.6,188.86C310.07,189.35 310.67,189.63 311.36,189.63C312.04,189.63 312.65,189.35 313.12,188.86C313.59,188.39 313.87,187.72 313.87,187C313.87,186.25 313.59,185.58 313.12,185.11C312.65,184.62 312.03,184.34 311.36,184.34C310.67,184.34 310.07,184.62 309.6,185.11C309.13,185.58 308.85,186.25 308.85,187Z" style="fill:rgb(0,66,85);fill-rule:nonzero;"/>
        <path d="M317.93,190.3C317.12,189.48 316.64,188.31 316.64,187C316.64,185.73 317.13,184.62 317.93,183.72C318.77,182.84 319.86,182.3 321.15,182.3C322.39,182.3 323.51,182.84 324.28,183.72C325.12,184.62 325.59,185.73 325.59,187C325.59,188.31 325.12,189.48 324.28,190.3C323.51,191.18 322.39,191.72 321.15,191.72C319.86,191.73 318.78,191.19 317.93,190.3ZM318.68,187C318.68,187.81 318.92,188.46 319.35,188.99C319.82,189.44 320.44,189.68 321.15,189.68C321.81,189.68 322.41,189.44 322.88,188.99C323.35,188.46 323.61,187.81 323.61,187C323.61,186.23 323.35,185.56 322.88,185.05C322.41,184.64 321.81,184.34 321.15,184.34C320.44,184.34 319.82,184.64 319.35,185.05C318.93,185.56 318.68,186.24 318.68,187Z" style="fill:rgb(0,66,85);fill-rule:nonzero;"/>
        <path d="M331.07,191.67C328.93,191.67 327.17,189.91 327.17,187.77L327.17,183.29C327.17,182.77 327.62,182.3 328.16,182.3C328.72,182.3 329.15,182.77 329.15,183.29L329.15,187.77C329.15,188.84 329.99,189.68 331.06,189.68C332.15,189.68 333.01,188.84 333.03,187.77L333.03,183.29C333.03,182.77 333.44,182.3 334.01,182.3C334.54,182.3 335.02,182.77 335.02,183.29L335.02,187.77C335.02,189.91 333.22,191.67 331.07,191.67Z" style="fill:rgb(0,66,85);fill-rule:nonzero;"/>
        <path d="M354.52,190.64C354.52,191.22 354.05,191.67 353.47,191.67C353,191.67 352.61,191.33 352.48,190.9C352.46,190.83 352.44,190.73 352.44,190.64L352.44,179.58C352.44,179 352.91,178.55 353.47,178.55C354.05,178.55 354.52,179 354.52,179.58L354.52,182.84C355.12,182.52 355.79,182.3 356.53,182.3C358.8,182.3 360.62,184.16 360.62,186.41L360.62,190.65C360.62,191.23 360.17,191.68 359.59,191.68C359.01,191.68 358.56,191.23 358.56,190.65L358.56,186.41C358.56,185.3 357.66,184.4 356.54,184.39C355.43,184.41 354.55,185.31 354.53,186.41L354.53,190.64L354.52,190.64Z" style="fill:rgb(0,66,85);fill-rule:nonzero;"/>
        <path d="M361.59,186.99C361.61,184.44 363.6,182.3 366.17,182.3C368.61,182.3 370.54,184.12 370.69,186.65L370.69,186.74C370.69,186.78 370.69,186.87 370.67,186.91C370.61,187.36 370.22,187.66 369.69,187.66L363.73,187.66C363.82,188.09 364.03,188.58 364.37,188.9C364.76,189.35 365.51,189.69 366.17,189.74C366.84,189.8 367.65,189.63 368.12,189.27C368.51,188.86 369.28,188.91 369.53,189.21C369.77,189.47 369.96,190.03 369.53,190.43C368.61,191.27 367.51,191.67 366.17,191.67C363.6,191.65 361.61,189.54 361.59,186.99ZM363.64,186.07L368.95,186.07C368.76,185.32 367.81,184.21 366.17,184.08C364.57,184.15 363.79,185.3 363.64,186.07Z" style="fill:rgb(0,66,85);fill-rule:nonzero;"/>
        <path d="M378.36,190.64C378.36,191.22 377.89,191.67 377.31,191.67C376.84,191.67 376.45,191.33 376.32,190.9C376.3,190.83 376.28,190.73 376.28,190.64L376.28,179.58C376.28,179 376.75,178.55 377.31,178.55C377.89,178.55 378.36,179 378.36,179.58L378.36,182.84C378.96,182.52 379.64,182.3 380.37,182.3C382.64,182.3 384.46,184.16 384.46,186.41L384.46,190.65C384.46,191.23 384.01,191.68 383.43,191.68C382.85,191.68 382.4,191.23 382.4,190.65L382.4,186.41C382.4,185.3 381.5,184.4 380.38,184.39C379.27,184.41 378.39,185.31 378.37,186.41L378.37,190.64L378.36,190.64Z" style="fill:rgb(0,66,85);fill-rule:nonzero;"/>
        <path d="M385.72,186.99C385.74,184.44 387.73,182.3 390.3,182.3C392.74,182.3 394.67,184.12 394.82,186.65L394.82,186.74C394.82,186.78 394.82,186.87 394.8,186.91C394.74,187.36 394.35,187.66 393.82,187.66L387.86,187.66C387.95,188.09 388.16,188.58 388.5,188.9C388.89,189.35 389.64,189.69 390.3,189.74C390.97,189.8 391.78,189.63 392.25,189.27C392.64,188.86 393.41,188.91 393.66,189.21C393.9,189.47 394.09,190.03 393.66,190.43C392.74,191.27 391.64,191.67 390.3,191.67C387.72,191.65 385.73,189.54 385.72,186.99ZM387.76,186.07L393.07,186.07C392.88,185.32 391.93,184.21 390.29,184.08C388.7,184.15 387.91,185.3 387.76,186.07Z" style="fill:rgb(0,66,85);fill-rule:nonzero;"/>
        <path d="M397.13,178.55C397.71,178.55 398.18,179.02 398.18,179.58L398.18,190.64C398.18,191.2 397.71,191.67 397.13,191.67C396.57,191.67 396.1,191.2 396.1,190.64L396.1,179.58C396.1,179.02 396.57,178.55 397.13,178.55Z" style="fill:rgb(0,66,85);fill-rule:nonzero;"/>
        <path d="M399.87,194.19L399.87,183.3C399.87,182.76 400.32,182.31 400.86,182.31C401.39,182.31 401.82,182.67 401.89,183.08C402.58,182.63 403.48,182.31 404.44,182.31C406.93,182.31 408.98,184.45 408.98,187.02C408.98,189.59 406.94,191.67 404.44,191.67C403.5,191.67 402.6,191.39 401.93,190.9L401.93,194.2C401.93,194.73 401.46,195.21 400.86,195.21C400.32,195.2 399.87,194.71 399.87,194.19ZM401.94,187C401.94,187.73 402.18,188.44 402.67,188.88C403.14,189.4 403.76,189.67 404.45,189.67C405.09,189.67 405.72,189.41 406.21,188.88C406.64,188.45 406.94,187.74 406.94,187C406.94,186.27 406.64,185.59 406.21,185.11C405.72,184.6 405.09,184.34 404.45,184.34C403.76,184.34 403.14,184.6 402.67,185.11C402.18,185.6 401.94,186.27 401.94,187Z" style="fill:rgb(0,66,85);fill-rule:nonzero;"/>
        <path d="M256.59,183.33C256.59,183.89 256.1,184.36 255.54,184.36L255.07,184.36L255.07,190.63C255.07,191.05 254.82,191.42 254.46,191.57C254.34,191.63 254.19,191.66 254.04,191.66C253.46,191.66 253,191.19 253,190.62L253,184.35L252.46,184.35C251.88,184.35 251.43,183.88 251.43,183.32C251.43,182.74 251.88,182.29 252.46,182.29L253,182.29L253,179.57C253,178.99 253.47,178.54 254.05,178.54C254.63,178.54 255.08,178.99 255.08,179.57L255.08,182.29L255.55,182.29C256.1,182.3 256.59,182.75 256.59,183.33Z" style="fill:rgb(0,66,85);fill-rule:nonzero;"/>
        <path d="M341.47,183.33C341.47,183.89 340.98,184.36 340.42,184.36L339.95,184.36L339.95,190.63C339.95,191.05 339.7,191.42 339.34,191.57C339.22,191.63 339.07,191.66 338.92,191.66C338.34,191.66 337.88,191.19 337.88,190.62L337.88,184.35L337.34,184.35C336.76,184.35 336.31,183.88 336.31,183.32C336.31,182.74 336.76,182.29 337.34,182.29L337.88,182.29L337.88,179.57C337.88,178.99 338.35,178.54 338.93,178.54C339.51,178.54 339.96,178.99 339.96,179.57L339.96,182.29L340.43,182.29C340.98,182.3 341.47,182.75 341.47,183.33Z" style="fill:rgb(0,66,85);fill-rule:nonzero;"/>
        <path d="M351.18,183.33C351.18,183.89 350.69,184.36 350.13,184.36L349.66,184.36L349.66,190.63C349.66,191.05 349.41,191.42 349.05,191.57C348.93,191.63 348.78,191.66 348.63,191.66C348.05,191.66 347.59,191.19 347.59,190.62L347.59,184.35L347.05,184.35C346.47,184.35 346.02,183.88 346.02,183.32C346.02,182.74 346.47,182.29 347.05,182.29L347.59,182.29L347.59,179.57C347.59,178.99 348.06,178.54 348.64,178.54C349.22,178.54 349.67,178.99 349.67,179.57L349.67,182.29L350.14,182.29C350.69,182.3 351.18,182.75 351.18,183.33Z" style="fill:rgb(0,66,85);fill-rule:nonzero;"/>
        <g>
            <path d="M458.95,118.27C458.95,132.27 447.63,143.62 433.66,143.62C431.11,143.62 428.65,143.24 426.33,142.54L426.33,122.44C427.78,124.99 430.52,126.7 433.66,126.7C438.32,126.7 442.09,122.92 442.09,118.27C442.09,113.62 438.32,109.84 433.66,109.84C430.52,109.84 427.78,111.56 426.33,114.1L426.33,103.52C426.33,100.38 424.76,97.43 422.2,95.67C423.17,95.17 424.18,94.74 425.22,94.37C425.58,94.24 425.94,94.13 426.3,94.02C428.63,93.31 431.09,92.93 433.65,92.93C437.57,92.93 441.28,93.82 444.59,95.42C449.79,97.92 454,102.15 456.49,107.37C458,110.55 458.87,114.09 458.93,117.83C458.95,117.96 458.95,118.11 458.95,118.27Z" style="fill:rgb(245,168,0);fill-rule:nonzero;"/>
            <path d="M425.23,103.52L425.23,162.54C425.23,167.2 421.45,170.97 416.8,170.97C412.14,170.97 408.37,167.2 408.37,162.54L408.37,103.52C408.37,98.86 412.14,95.09 416.8,95.09C418.37,95.09 419.84,95.52 421.1,96.27C423.57,97.73 425.23,100.43 425.23,103.52Z" style="fill:rgb(245,168,0);fill-rule:nonzero;"/>
        </g>
        <path d="M378.7,108.68L378.7,108.7C378.78,111.28 377.26,113.72 374.8,114.74L347.2,126.17C346.27,125.18 345.5,124.01 344.94,122.68C344.35,121.26 344.07,119.78 344.06,118.32L365,109.64C362.17,106.55 357.94,105.03 353.75,105.67C353.61,105.69 353.48,105.71 353.34,105.74C353.2,105.77 353.06,105.8 352.92,105.83C352.68,105.88 352.44,105.94 352.2,106.01C351.96,106.08 351.72,106.16 351.48,106.24C351.41,106.26 351.35,106.29 351.28,106.31C351.14,106.36 350.99,106.42 350.85,106.48L350.78,106.51C350.48,106.64 350.18,106.77 349.89,106.92C349.73,107 349.58,107.08 349.44,107.16C349.35,107.21 349.25,107.27 349.16,107.32C349.12,107.34 349.07,107.37 349.03,107.4C348.91,107.47 348.79,107.55 348.68,107.62C348.55,107.71 348.43,107.79 348.3,107.88C348.19,107.95 348.1,108.02 348,108.1C343.48,111.49 341.65,117.63 343.91,123.1C346.59,129.58 354.03,132.66 360.51,129.97C360.64,129.92 360.77,129.86 360.9,129.8C361.01,129.75 361.13,129.69 361.24,129.64C361.46,129.53 361.69,129.42 361.9,129.29C362,129.24 362.09,129.18 362.19,129.13C362.31,129.06 362.42,128.99 362.54,128.91C362.71,128.8 362.88,128.69 363.04,128.57C363.08,128.55 363.11,128.52 363.15,128.5C363.28,128.4 363.42,128.3 363.55,128.19C363.59,128.16 363.64,128.12 363.68,128.08C364.37,127.52 364.99,126.89 365.54,126.21C365.56,126.19 365.58,126.17 365.6,126.16C367.19,124.72 369.37,124.22 371.37,124.7C372,124.85 372.62,125.1 373.19,125.46C373.48,125.63 373.75,125.83 374.02,126.05C376.68,128.33 377,132.32 374.75,135C374.71,135.05 374.67,135.1 374.63,135.14C374.57,135.21 374.51,135.27 374.45,135.33C372.02,138.01 368.98,140.2 365.42,141.68C352.49,147.03 337.66,140.87 332.29,127.91C326.92,114.95 333.06,100.11 345.98,94.75C357.54,89.96 370.62,94.38 377.1,104.63C377.48,105.23 377.83,105.85 378.17,106.49C378.5,107.18 378.68,107.92 378.7,108.68Z" style="fill:rgb(245,168,0);fill-rule:nonzero;"/>
        <g transform="matrix(0.8507,-0.5257,0.5257,0.8507,-8.5602,120.056)">
            <circle cx="207.03" cy="75.09" r="8.43" style="fill:rgb(245,168,0);"/>
        </g>
        <path d="M403.09,75.12L403.09,135.21C403.09,139.87 399.31,143.64 394.65,143.64C389.99,143.64 386.22,139.87 386.22,135.21L386.22,75.12C386.22,70.46 389.99,66.68 394.65,66.68C399.31,66.69 403.09,70.47 403.09,75.12Z" style="fill:rgb(245,168,0);fill-rule:nonzero;"/>
        <path d="M215.46,101.47L215.46,135.21C215.46,139.87 211.68,143.64 207.03,143.64C202.37,143.64 198.6,139.86 198.6,135.21L198.6,101.47C198.6,96.81 202.38,93.04 207.03,93.04C211.69,93.04 215.46,96.82 215.46,101.47Z" style="fill:rgb(245,168,0);fill-rule:nonzero;"/>
        <g>
            <path d="M227.03,79.85L235.46,79.85L235.46,96.72L227.03,96.72C222.37,96.72 218.6,92.94 218.6,88.29C218.6,83.63 222.37,79.85 227.03,79.85Z" style="fill:rgb(245,168,0);fill-rule:nonzero;"/>
            <path d="M253.41,62.98L253.41,147.32C253.41,151.98 249.63,155.75 244.98,155.75C240.32,155.75 236.55,151.97 236.55,147.32L236.55,62.98C236.55,58.32 240.33,54.55 244.98,54.55C249.64,54.55 253.41,58.32 253.41,62.98Z" style="fill:rgb(245,168,0);fill-rule:nonzero;"/>
            <path d="M271.36,88.28C271.36,92.94 267.59,96.71 262.93,96.71L254.5,96.71L254.5,79.85L262.93,79.85C267.59,79.85 271.36,83.63 271.36,88.28Z" style="fill:rgb(245,168,0);fill-rule:nonzero;"/>
        </g>
        <path d="M274.5,105.69L274.5,104.61" style="fill:none;fill-rule:nonzero;"/>
        <g>
            <path d="M325.08,118.1L325.08,135.18C325.08,139.84 321.3,143.61 316.65,143.61C314.34,143.61 312.25,142.68 310.72,141.18C309.17,139.65 308.21,137.53 308.21,135.18L308.21,118.31C308.21,113.65 304.43,109.88 299.78,109.88C296.62,109.88 293.87,111.61 292.43,114.18L292.43,94.05C294.76,93.34 297.23,92.96 299.78,92.96C313.68,92.96 324.97,104.2 325.08,118.1Z" style="fill:rgb(245,168,0);fill-rule:nonzero;"/>
            <path d="M291.34,75.12L291.34,135.18C291.34,137.53 290.38,139.65 288.83,141.18C287.31,142.68 285.21,143.61 282.9,143.61C278.24,143.61 274.47,139.84 274.47,135.18L274.47,75.12C274.47,70.46 278.24,66.69 282.9,66.69C287.56,66.69 291.34,70.46 291.34,75.12Z" style="fill:rgb(245,168,0);fill-rule:nonzero;"/>
        </g>
    </g>
</svg>
